{
  "source": "C:\\Users\\Peter\\Desktop\\stuff\\MIUN\\quantitative_research\\video_compression\\videos\\BVI-HD\\BVI-HD_CDVL_videos\\ORIG\\Diver_1920x1080_30fps.mp4",
  "output": "C:\\Users\\Peter\\Desktop\\stuff\\MIUN\\quantitative_research\\video_compression\\compressed_videos\\BVI-HD\\h264\\1\\Diver_1920x1080_30fps_h264.mp4",
  "codec": "h264",
  "ok": "Input #0, mov,mp4,m4a,3gp,3g2,mj2, from 'C:\\Users\\Peter\\Desktop\\stuff\\MIUN\\quantitative_research\\video_compression\\videos\\BVI-HD\\BVI-HD_CDVL_videos\\ORIG\\Diver_1920x1080_30fps.mp4':\n  Metadata:\n    major_brand     : isom\n    minor_version   : 512\n    compatible_brands: isomiso2avc1mp41\n    encoder         : Lavf54.28.101\n  Duration: 00:00:05.00, start: 0.000000, bitrate: 196798 kb/s\n  Stream #0:0[0x1](und): Video: h264 (High 4:4:4 Predictive) (avc1 / 0x31637661), yuv420p(progressive), 1920x1080, 196794 kb/s, 30 fps, 30 tbr, 30 tbn (default)\n    Metadata:\n      handler_name    : VideoHandler\n      vendor_id       : [0][0][0][0]\n[out#0/mp4 @ 000001fb28e29cc0] Codec AVOption b:a (set bitrate (in bits/s)) has not been used for any stream. The most likely reason is either wrong type (e.g. a video option with no video streams) or that it is a private option of some decoder which was not actually used for any stream.\nStream mapping:\n  Stream #0:0 -> #0:0 (h264 (native) -> h264 (libx264))\nPress [q] to stop, [?] for help\n[libx264 @ 000001fb28e2df00] using cpu capabilities: MMX2 SSE2Fast SSSE3 SSE4.2 AVX FMA3 BMI2 AVX2\n[libx264 @ 000001fb28e2df00] profile High, level 5.0, 4:2:0, 8-bit\n[libx264 @ 000001fb28e2df00] 264 - core 165 r3222 b35605a - H.264/MPEG-4 AVC codec - Copyleft 2003-2025 - http://www.videolan.org/x264.html - options: cabac=1 ref=5 deblock=1:0:0 analyse=0x3:0x113 me=hex subme=8 psy=1 psy_rd=1.00:0.00 mixed_ref=1 me_range=16 chroma_me=1 trellis=2 8x8dct=1 cqm=0 deadzone=21,11 fast_pskip=1 chroma_qp_offset=-2 threads=18 lookahead_threads=3 sliced_threads=0 nr=0 decimate=1 interlaced=0 bluray_compat=0 constrained_intra=0 bframes=3 b_pyramid=2 b_adapt=1 b_bias=0 direct=3 weightb=1 open_gop=0 weightp=2 keyint=250 keyint_min=25 scenecut=40 intra_refresh=0 rc_lookahead=50 rc=cbr mbtree=1 bitrate=1000 ratetol=1.0 qcomp=0.60 qpmin=0 qpmax=69 qpstep=4 vbv_maxrate=1000 vbv_bufsize=1000 nal_hrd=none filler=0 ip_ratio=1.40 aq=1:1.00\nOutput #0, mp4, to 'C:\\Users\\Peter\\Desktop\\stuff\\MIUN\\quantitative_research\\video_compression\\compressed_videos\\BVI-HD\\h264\\1\\Diver_1920x1080_30fps_h264.mp4':\n  Metadata:\n    major_brand     : isom\n    minor_version   : 512\n    compatible_brands: isomiso2avc1mp41\n    encoder         : Lavf62.3.100\n  Stream #0:0(und): Video: h264 (avc1 / 0x31637661), yuv420p(tv, progressive), 1920x1080, q=2-31, 1000 kb/s, 30 fps, 15360 tbn (default)\n    Metadata:\n      encoder         : Lavc62.11.100 libx264\n      handler_name    : VideoHandler\n      vendor_id       : [0][0][0][0]\n    Side data:\n      cpb: bitrate max/min/avg: 1000000/0/1000000 buffer size: 1000000 vbv_delay: N/A\nframe=    0 fps=0.0 q=0.0 size=       0KiB time=N/A bitrate=N/A speed=N/A elapsed=0:00:00.53    \nframe=    0 fps=0.0 q=0.0 size=       0KiB time=N/A bitrate=N/A speed=N/A elapsed=0:00:01.20    \nframe=    0 fps=0.0 q=0.0 size=       0KiB time=N/A bitrate=N/A speed=N/A elapsed=0:00:01.74    \nframe=   16 fps=7.0 q=38.0 size=       0KiB time=00:00:00.46 bitrate=   0.8kbits/s speed=0.203x elapsed=0:00:02.29    \nframe=   44 fps= 16 q=38.0 size=       0KiB time=00:00:01.26 bitrate=   0.3kbits/s speed=0.447x elapsed=0:00:02.83    \nframe=   68 fps= 20 q=39.0 size=       0KiB time=00:00:02.20 bitrate=   0.2kbits/s speed=0.648x elapsed=0:00:03.39    \nframe=   89 fps= 23 q=40.0 size=       0KiB time=00:00:02.80 bitrate=   0.1kbits/s speed=0.715x elapsed=0:00:03.91    \nframe=  121 fps= 27 q=40.0 size=     256KiB time=00:00:03.96 bitrate= 528.8kbits/s speed=0.887x elapsed=0:00:04.47    \n[mp4 @ 000001fb28e2c440] Starting second pass: moving the moov atom to the beginning of the file\n[out#0/mp4 @ 000001fb28e29cc0] video:530KiB audio:0KiB subtitle:0KiB other streams:0KiB global headers:0KiB muxing overhead: 0.489984%\nframe=  150 fps= 30 q=-1.0 Lsize=     533KiB time=00:00:04.93 bitrate= 884.3kbits/s speed=0.997x elapsed=0:00:04.94    \n[libx264 @ 000001fb28e2df00] frame I:1     Avg QP:36.63  size:  6822\n[libx264 @ 000001fb28e2df00] frame P:38    Avg QP:35.87  size:  6644\n[libx264 @ 000001fb28e2df00] frame B:111   Avg QP:40.20  size:  2546\n[libx264 @ 000001fb28e2df00] consecutive B-frames:  1.3%  0.0%  0.0% 98.7%\n[libx264 @ 000001fb28e2df00] mb I  I16..4: 50.4% 49.4%  0.2%\n[libx264 @ 000001fb28e2df00] mb P  I16..4:  7.3%  4.4%  0.0%  P16..4: 25.2%  1.2%  0.8%  0.0%  0.0%    skip:61.1%\n[libx264 @ 000001fb28e2df00] mb B  I16..4:  0.1%  0.2%  0.0%  B16..8: 24.4%  0.6%  0.0%  direct: 0.1%  skip:74.6%  L0:33.0% L1:66.7% BI: 0.3%\n[libx264 @ 000001fb28e2df00] 8x8 transform intra:41.4% inter:92.8%\n[libx264 @ 000001fb28e2df00] direct mvs  spatial:91.0% temporal:9.0%\n[libx264 @ 000001fb28e2df00] coded y,uvDC,uvAC intra: 8.5% 14.9% 0.2% inter: 0.9% 1.8% 0.0%\n[libx264 @ 000001fb28e2df00] i16 v,h,dc,p: 21% 39%  8% 32%\n[libx264 @ 000001fb28e2df00] i8 v,h,dc,ddl,ddr,vr,hd,vl,hu:  7%  7% 44%  5%  9%  6% 10%  5%  7%\n[libx264 @ 000001fb28e2df00] i4 v,h,dc,ddl,ddr,vr,hd,vl,hu:  5%  6% 29%  7% 14%  8% 11%  6% 14%\n[libx264 @ 000001fb28e2df00] i8c dc,h,v,p: 76% 22%  2%  0%\n[libx264 @ 000001fb28e2df00] Weighted P-Frames: Y:7.9% UV:0.0%\n[libx264 @ 000001fb28e2df00] ref P L0: 49.1%  8.5% 26.4%  7.4%  8.5%  0.1%\n[libx264 @ 000001fb28e2df00] ref B L0: 79.7% 13.9%  5.1%  1.3%\n[libx264 @ 000001fb28e2df00] ref B L1: 93.5%  6.5%\n[libx264 @ 000001fb28e2df00] kb/s:867.05\n",
  "seconds": 5.214559078216553,
  "probe_out": {}
}